<mxfile host="app.diagrams.net" modified="2021-01-14T08:57:41.880Z" agent="5.0 (Windows NT 10.0; Win64; x64) AppleWebKit/537.36 (KHTML, like Gecko) Chrome/87.0.4280.141 Safari/537.36" etag="c7vCxMmhp4r3UM37TEB3" version="14.2.2" type="github">
  <diagram id="8tTxIPcfSnXsYFQpMSlw" name="Page-1">
    <mxGraphModel dx="2249" dy="762" grid="1" gridSize="10" guides="1" tooltips="1" connect="1" arrows="1" fold="1" page="1" pageScale="1" pageWidth="827" pageHeight="1169" math="0" shadow="0">
      <root>
        <mxCell id="0" />
        <mxCell id="1" parent="0" />
        <mxCell id="LDtQIVSzVg_jSBdOo37z-1" value="" style="edgeStyle=orthogonalEdgeStyle;rounded=0;orthogonalLoop=1;jettySize=auto;html=1;" edge="1" parent="1" source="LDtQIVSzVg_jSBdOo37z-2" target="LDtQIVSzVg_jSBdOo37z-43">
          <mxGeometry relative="1" as="geometry" />
        </mxCell>
        <mxCell id="LDtQIVSzVg_jSBdOo37z-2" value="Test Management" style="rounded=0;whiteSpace=wrap;html=1;verticalAlign=top;fontStyle=1" vertex="1" parent="1">
          <mxGeometry x="-810" y="180" width="770" height="730" as="geometry" />
        </mxCell>
        <mxCell id="LDtQIVSzVg_jSBdOo37z-3" value="Test Adaptation Layer" style="rounded=0;whiteSpace=wrap;html=1;horizontal=1;verticalAlign=top;fontStyle=1" vertex="1" parent="1">
          <mxGeometry x="-640" y="662" width="390" height="118" as="geometry" />
        </mxCell>
        <mxCell id="LDtQIVSzVg_jSBdOo37z-4" value="GUI" style="rounded=0;whiteSpace=wrap;html=1;horizontal=0;" vertex="1" parent="1">
          <mxGeometry x="-540" y="698" width="20" height="70" as="geometry" />
        </mxCell>
        <mxCell id="LDtQIVSzVg_jSBdOo37z-5" value="API" style="rounded=0;whiteSpace=wrap;html=1;horizontal=0;" vertex="1" parent="1">
          <mxGeometry x="-510" y="698" width="20" height="70" as="geometry" />
        </mxCell>
        <mxCell id="LDtQIVSzVg_jSBdOo37z-6" value="Services" style="rounded=0;whiteSpace=wrap;html=1;horizontal=0;" vertex="1" parent="1">
          <mxGeometry x="-480" y="698" width="20" height="70" as="geometry" />
        </mxCell>
        <mxCell id="LDtQIVSzVg_jSBdOo37z-7" value="Databases" style="rounded=0;whiteSpace=wrap;html=1;horizontal=0;" vertex="1" parent="1">
          <mxGeometry x="-450" y="698" width="20" height="70" as="geometry" />
        </mxCell>
        <mxCell id="LDtQIVSzVg_jSBdOo37z-8" value="Test Execution Layer" style="rounded=0;whiteSpace=wrap;html=1;verticalAlign=top;fontStyle=1" vertex="1" parent="1">
          <mxGeometry x="-640" y="562" width="390" height="80" as="geometry" />
        </mxCell>
        <mxCell id="LDtQIVSzVg_jSBdOo37z-9" value="Test Logging" style="rounded=0;whiteSpace=wrap;html=1;" vertex="1" parent="1">
          <mxGeometry x="-610" y="602" width="150" height="30" as="geometry" />
        </mxCell>
        <mxCell id="LDtQIVSzVg_jSBdOo37z-10" value="Test Report" style="rounded=0;whiteSpace=wrap;html=1;" vertex="1" parent="1">
          <mxGeometry x="-430" y="602" width="150" height="30" as="geometry" />
        </mxCell>
        <mxCell id="LDtQIVSzVg_jSBdOo37z-11" value="Browsers" style="rounded=0;whiteSpace=wrap;html=1;horizontal=0;" vertex="1" parent="1">
          <mxGeometry x="-420" y="698" width="20" height="70" as="geometry" />
        </mxCell>
        <mxCell id="LDtQIVSzVg_jSBdOo37z-12" value="..." style="rounded=0;whiteSpace=wrap;html=1;horizontal=0;" vertex="1" parent="1">
          <mxGeometry x="-390" y="698" width="20" height="70" as="geometry" />
        </mxCell>
        <mxCell id="LDtQIVSzVg_jSBdOo37z-13" value="Test Definition Layer" style="rounded=0;whiteSpace=wrap;html=1;verticalAlign=top;fontStyle=1" vertex="1" parent="1">
          <mxGeometry x="-640" y="320" width="390" height="222" as="geometry" />
        </mxCell>
        <mxCell id="LDtQIVSzVg_jSBdOo37z-14" value="" style="edgeStyle=orthogonalEdgeStyle;rounded=0;orthogonalLoop=1;jettySize=auto;html=1;fontSize=10;" edge="1" parent="1" source="LDtQIVSzVg_jSBdOo37z-15" target="LDtQIVSzVg_jSBdOo37z-22">
          <mxGeometry relative="1" as="geometry">
            <Array as="points">
              <mxPoint x="-230" y="437" />
              <mxPoint x="-230" y="382" />
            </Array>
          </mxGeometry>
        </mxCell>
        <mxCell id="LDtQIVSzVg_jSBdOo37z-15" value="Business Objects" style="rounded=0;whiteSpace=wrap;html=1;" vertex="1" parent="1">
          <mxGeometry x="-430" y="422" width="150" height="30" as="geometry" />
        </mxCell>
        <mxCell id="LDtQIVSzVg_jSBdOo37z-16" value="" style="edgeStyle=orthogonalEdgeStyle;rounded=0;orthogonalLoop=1;jettySize=auto;html=1;" edge="1" parent="1" source="LDtQIVSzVg_jSBdOo37z-17" target="LDtQIVSzVg_jSBdOo37z-18">
          <mxGeometry relative="1" as="geometry">
            <Array as="points">
              <mxPoint x="-230" y="517" />
              <mxPoint x="-230" y="572" />
            </Array>
          </mxGeometry>
        </mxCell>
        <mxCell id="LDtQIVSzVg_jSBdOo37z-17" value="Test Library" style="rounded=0;whiteSpace=wrap;html=1;" vertex="1" parent="1">
          <mxGeometry x="-610" y="502" width="330" height="30" as="geometry" />
        </mxCell>
        <mxCell id="LDtQIVSzVg_jSBdOo37z-18" value="SeleniumLibrary&lt;br style=&quot;font-size: 10px;&quot;&gt;OperatingSystem&lt;br style=&quot;font-size: 10px;&quot;&gt;SAPGuiLibrary&lt;br style=&quot;font-size: 10px;&quot;&gt;Strings&lt;br style=&quot;font-size: 10px;&quot;&gt;Collections" style="ellipse;whiteSpace=wrap;html=1;rounded=0;fontSize=10;" vertex="1" parent="1">
          <mxGeometry x="-193" y="532" width="120" height="80" as="geometry" />
        </mxCell>
        <mxCell id="LDtQIVSzVg_jSBdOo37z-19" value="" style="edgeStyle=orthogonalEdgeStyle;rounded=0;orthogonalLoop=1;jettySize=auto;html=1;fontSize=10;" edge="1" parent="1" source="LDtQIVSzVg_jSBdOo37z-20" target="LDtQIVSzVg_jSBdOo37z-21">
          <mxGeometry relative="1" as="geometry" />
        </mxCell>
        <mxCell id="LDtQIVSzVg_jSBdOo37z-20" value="Page Objects" style="rounded=0;whiteSpace=wrap;html=1;" vertex="1" parent="1">
          <mxGeometry x="-350" y="462" width="70" height="30" as="geometry" />
        </mxCell>
        <mxCell id="LDtQIVSzVg_jSBdOo37z-21" value="casesPO&lt;br&gt;zakelijkRechtPO&lt;br&gt;werktekeningPO" style="ellipse;whiteSpace=wrap;html=1;rounded=0;fontSize=10;" vertex="1" parent="1">
          <mxGeometry x="-193" y="437" width="120" height="80" as="geometry" />
        </mxCell>
        <mxCell id="LDtQIVSzVg_jSBdOo37z-22" value="casesPO&lt;br&gt;zakelijkRechtPO&lt;br&gt;werktekeningPO" style="ellipse;whiteSpace=wrap;html=1;rounded=0;fontSize=10;" vertex="1" parent="1">
          <mxGeometry x="-193" y="342" width="120" height="80" as="geometry" />
        </mxCell>
        <mxCell id="LDtQIVSzVg_jSBdOo37z-23" value="" style="edgeStyle=orthogonalEdgeStyle;rounded=0;orthogonalLoop=1;jettySize=auto;html=1;fontSize=10;" edge="1" parent="1" source="LDtQIVSzVg_jSBdOo37z-24" target="LDtQIVSzVg_jSBdOo37z-25">
          <mxGeometry relative="1" as="geometry" />
        </mxCell>
        <mxCell id="LDtQIVSzVg_jSBdOo37z-24" value="Assertions" style="rounded=0;whiteSpace=wrap;html=1;" vertex="1" parent="1">
          <mxGeometry x="-610" y="462" width="70" height="30" as="geometry" />
        </mxCell>
        <mxCell id="LDtQIVSzVg_jSBdOo37z-25" value="casesAS&lt;br&gt;zakelijkRechtAS" style="ellipse;whiteSpace=wrap;html=1;rounded=0;" vertex="1" parent="1">
          <mxGeometry x="-785" y="437" width="120" height="80" as="geometry" />
        </mxCell>
        <mxCell id="LDtQIVSzVg_jSBdOo37z-26" value="" style="edgeStyle=orthogonalEdgeStyle;rounded=0;orthogonalLoop=1;jettySize=auto;html=1;fontSize=10;" edge="1" parent="1" source="LDtQIVSzVg_jSBdOo37z-27" target="LDtQIVSzVg_jSBdOo37z-28">
          <mxGeometry relative="1" as="geometry" />
        </mxCell>
        <mxCell id="LDtQIVSzVg_jSBdOo37z-27" value="Test Cases" style="rounded=0;whiteSpace=wrap;html=1;" vertex="1" parent="1">
          <mxGeometry x="-610" y="361" width="70" height="30" as="geometry" />
        </mxCell>
        <mxCell id="LDtQIVSzVg_jSBdOo37z-28" value="kaartlagen&lt;br&gt;tekeningMaken&lt;br&gt;importerenTekening" style="ellipse;whiteSpace=wrap;html=1;rounded=0;" vertex="1" parent="1">
          <mxGeometry x="-785" y="336" width="120" height="80" as="geometry" />
        </mxCell>
        <mxCell id="LDtQIVSzVg_jSBdOo37z-29" value="Test Cases" style="rounded=0;whiteSpace=wrap;html=1;" vertex="1" parent="1">
          <mxGeometry x="-530" y="361" width="70" height="30" as="geometry" />
        </mxCell>
        <mxCell id="LDtQIVSzVg_jSBdOo37z-30" value="Business Objects" style="rounded=0;whiteSpace=wrap;html=1;" vertex="1" parent="1">
          <mxGeometry x="-610" y="422" width="150" height="30" as="geometry" />
        </mxCell>
        <mxCell id="LDtQIVSzVg_jSBdOo37z-31" value="Page Objects" style="rounded=0;whiteSpace=wrap;html=1;" vertex="1" parent="1">
          <mxGeometry x="-430" y="462" width="70" height="30" as="geometry" />
        </mxCell>
        <mxCell id="LDtQIVSzVg_jSBdOo37z-32" value="Assertions" style="rounded=0;whiteSpace=wrap;html=1;" vertex="1" parent="1">
          <mxGeometry x="-530" y="462" width="70" height="30" as="geometry" />
        </mxCell>
        <mxCell id="LDtQIVSzVg_jSBdOo37z-33" value="Test Cases" style="rounded=0;whiteSpace=wrap;html=1;" vertex="1" parent="1">
          <mxGeometry x="-430" y="361" width="70" height="30" as="geometry" />
        </mxCell>
        <mxCell id="LDtQIVSzVg_jSBdOo37z-34" value="Test Cases" style="rounded=0;whiteSpace=wrap;html=1;" vertex="1" parent="1">
          <mxGeometry x="-350" y="361" width="70" height="30" as="geometry" />
        </mxCell>
        <mxCell id="LDtQIVSzVg_jSBdOo37z-35" value="Test Generation Layer" style="rounded=0;whiteSpace=wrap;html=1;verticalAlign=top;fontStyle=1" vertex="1" parent="1">
          <mxGeometry x="-640" y="240" width="390" height="71" as="geometry" />
        </mxCell>
        <mxCell id="LDtQIVSzVg_jSBdOo37z-36" value="Manual Design" style="rounded=0;whiteSpace=wrap;html=1;" vertex="1" parent="1">
          <mxGeometry x="-610" y="271" width="150" height="30" as="geometry" />
        </mxCell>
        <mxCell id="LDtQIVSzVg_jSBdOo37z-37" value="Test Models" style="rounded=0;whiteSpace=wrap;html=1;" vertex="1" parent="1">
          <mxGeometry x="-430" y="271" width="150" height="30" as="geometry" />
        </mxCell>
        <mxCell id="LDtQIVSzVg_jSBdOo37z-38" value="System Under Test" style="rounded=0;whiteSpace=wrap;html=1;verticalAlign=top;fontStyle=1" vertex="1" parent="1">
          <mxGeometry x="-640" y="790" width="390" height="80" as="geometry" />
        </mxCell>
        <mxCell id="LDtQIVSzVg_jSBdOo37z-39" value="..." style="rounded=0;whiteSpace=wrap;html=1;" vertex="1" parent="1">
          <mxGeometry x="-350" y="830" width="70" height="30" as="geometry" />
        </mxCell>
        <mxCell id="LDtQIVSzVg_jSBdOo37z-40" value="OMG" style="rounded=0;whiteSpace=wrap;html=1;" vertex="1" parent="1">
          <mxGeometry x="-610" y="830" width="70" height="30" as="geometry" />
        </mxCell>
        <mxCell id="LDtQIVSzVg_jSBdOo37z-41" value="..." style="rounded=0;whiteSpace=wrap;html=1;" vertex="1" parent="1">
          <mxGeometry x="-430" y="830" width="70" height="30" as="geometry" />
        </mxCell>
        <mxCell id="LDtQIVSzVg_jSBdOo37z-42" value="PMD" style="rounded=0;whiteSpace=wrap;html=1;" vertex="1" parent="1">
          <mxGeometry x="-530" y="830" width="70" height="30" as="geometry" />
        </mxCell>
        <mxCell id="LDtQIVSzVg_jSBdOo37z-43" value="qTest" style="ellipse;whiteSpace=wrap;html=1;rounded=0;fontStyle=1;verticalAlign=top;" vertex="1" parent="1">
          <mxGeometry x="-485" y="40" width="120" height="80" as="geometry" />
        </mxCell>
        <mxCell id="LDtQIVSzVg_jSBdOo37z-44" value="Wrappers" style="rounded=1;whiteSpace=wrap;html=1;labelBorderColor=none;strokeColor=#666666;fontColor=#333333;dashed=1;glass=0;shadow=0;sketch=0;fillColor=#f5f5f5;" vertex="1" parent="1">
          <mxGeometry x="-610" y="396" width="330" height="20" as="geometry" />
        </mxCell>
      </root>
    </mxGraphModel>
  </diagram>
</mxfile>
